<?xml version="1.0" encoding="UTF-8"?>
<svg id="Capa_1" xmlns="http://www.w3.org/2000/svg" version="1.1" viewBox="0 0 300 300">
  <!-- Generator: Adobe Illustrator 29.0.0, SVG Export Plug-In . SVG Version: 2.1.0 Build 186)  -->
  <defs>
    <style>
      .st0 {
        fill: #333;
      }

      .st1 {
        fill: #1b9cd9;
      }
    </style>
  </defs>
  <path class="st0" d="M257.81,0c1.61.7,4.69,3.15,4.69,4.98v245.21h33.11c1.67,0,3.42,2.95,4.39,4.1v7.03c-2.47,14.69-10.93,27.83-24.59,34.29-4.54,2.15-9.24,3.17-14.08,4.38H38.67c-12.07-2.08-23.17-7.91-30.37-17.97-4.51-6.3-6.8-13.15-8.3-20.7V4.69C1.1,2.4,2.4,1.1,4.69,0h253.12ZM79.39,250.2h169.92l.88-.88V13.18l-.88-.88H13.18l-.88.88v244.92c0,4.4,3.38,12.65,5.96,16.31,15.33,21.68,50.42,14.96,55.99-11.2.85-3.98-.09-12.09,5.14-13.02ZM286.52,262.5H86.72c-.88,9.61-5.99,18.18-12.3,25.2h183.69c2.35,0,8.28-1.84,10.65-2.82,8.81-3.67,16.61-12.71,17.77-22.37Z"/>
  <path class="st1" d="M68.55,34.07v8.21c0,1.31.85,2.44,2.09,2.87,8.76,3,15.46,10.94,16.53,20.09.21,1.77-1.22,3.32-3.01,3.32h-6.54c-1.42,0-2.66-.99-2.94-2.38-3.56-17.52-31.22-9.21-23.55,7.8,4,8.87,12.33,6.23,19.5,8.63,17.85,5.96,22.64,29.61,8.75,42.19-2.77,2.51-5.81,3.9-9.05,5.37-1.08.49-1.77,1.56-1.77,2.75v7.64c0,1.67-1.35,3.02-3.02,3.02h-6.27c-1.67,0-3.02-1.35-3.02-3.02v-8.09c0-1.36-.92-2.51-2.22-2.91-8.62-2.63-15.15-11.18-16.34-20.13-.24-1.78,1.2-3.35,3-3.35h6.47c1.43,0,2.64,1.02,2.95,2.42,2.07,9.4,13.93,14.18,21.31,6.6,6.82-6.99,3.3-19.24-6.36-21.06-1.98-.37-3.8-.01-5.53-.33-26.98-4.92-29.71-39.4-5.24-48.5,1.18-.44,1.96-1.56,1.96-2.82v-8.3c0-1.67,1.35-3.02,3.02-3.02h6.27c1.67,0,3.02,1.35,3.02,3.02Z"/>
  <path class="st0" d="M156.45,162.6h0c0,3.4-2.75,6.15-6.15,6.15H62.7v-12.3h87.6c3.4,0,6.15,2.75,6.15,6.15Z"/>
  <path class="st0" d="M225,187.5v12.3h-87.6c-3.4,0-6.15-2.75-6.15-6.15h0c0-3.4,2.75-6.15,6.15-6.15h87.6Z"/>
  <path class="st0" d="M225,124.8v12.89h-81.15c-3.4,0-6.15-2.75-6.15-6.15v-.59c0-3.4,2.75-6.15,6.15-6.15h81.15Z"/>
  <path class="st0" d="M225,62.7v12.3h-81.15c-3.4,0-6.15-2.75-6.15-6.15h0c0-3.4,2.75-6.15,6.15-6.15h81.15Z"/>
  <path class="st0" d="M225,93.75v12.3h-81.15c-3.4,0-6.15-2.75-6.15-6.15h0c0-3.4,2.75-6.15,6.15-6.15h81.15Z"/>
  <path class="st0" d="M225,156.45v12.3h-50.1c-3.4,0-6.15-2.75-6.15-6.15h0c0-3.4,2.75-6.15,6.15-6.15h50.1Z"/>
  <path class="st0" d="M118.95,193.65h0c0,3.4-2.75,6.15-6.15,6.15h-50.1v-12.3h50.1c3.4,0,6.15,2.75,6.15,6.15Z"/>
  <path class="st0" d="M199.8,31.05v6.74c0,3.4-2.75,6.15-6.15,6.15h-37.5c-3.4,0-6.15-2.75-6.15-6.15v-6.74h49.8Z"/>
  <path class="st0" d="M225,218.55v12.89h-43.65c-3.4,0-6.15-2.75-6.15-6.15v-.59c0-3.4,2.75-6.15,6.15-6.15h43.65Z"/>
  <rect class="st0" x="112.5" y="124.8" width="12.3" height="12.89" rx="6.15" ry="6.15"/>
  <rect class="st0" x="112.5" y="62.7" width="12.3" height="12.3" rx="6.15" ry="6.15"/>
  <rect class="st0" x="112.5" y="93.75" width="12.3" height="12.3" rx="6.15" ry="6.15"/>
  <rect class="st0" x="37.5" y="156.45" width="12.3" height="12.3" rx="6.15" ry="6.15"/>
  <rect class="st0" x="37.5" y="187.5" width="12.3" height="12.3" rx="6.15" ry="6.15"/>
</svg>