<svg xmlns="http://www.w3.org/2000/svg" viewBox="0 0 64 64" role="img" aria-label="Contabilidad">
  <defs>
    <linearGradient id="azulDocCont" x1="12" y1="8" x2="52" y2="58" gradientUnits="userSpaceOnUse">
      <stop offset="0%" stop-color="#25c6f3"/>
      <stop offset="100%" stop-color="#004370"/>
    </linearGradient>

    <linearGradient id="azulMoneda" x1="36" y1="34" x2="58" y2="58" gradientUnits="userSpaceOnUse">
      <stop offset="0%" stop-color="#25c6f3"/>
      <stop offset="100%" stop-color="#003b70"/>
    </linearGradient>
  </defs>

  <!-- Documento -->
  <path
    fill="url(#azulDocCont)"
    d="M13 7.5C13 5.6 14.6 4 16.5 4H39l12 12v31.5c0 1.9-1.6 3.5-3.5 3.5h-31C14.6 51 13 49.4 13 47.5v-40Z"
  />

  <!-- Esquina doblada -->
  <path
    fill="#ffffff"
    opacity=".95"
    d="M39 4v10.5c0 1.4 1.1 2.5 2.5 2.5H52L39 4Z"
  />

  <!-- Líneas del documento -->
  <rect x="20" y="19" width="15" height="3.5" rx="1.7" fill="#ffffff" opacity=".95"/>
  <rect x="20" y="28" width="22" height="3.5" rx="1.7" fill="#ffffff" opacity=".95"/>
  <rect x="20" y="37" width="13" height="3.5" rx="1.7" fill="#ffffff" opacity=".95"/>

  <!-- Moneda -->
  <circle
    cx="45"
    cy="45"
    r="14"
    fill="url(#azulMoneda)"
    stroke="#ffffff"
    stroke-width="3"
  />

  <!-- Símbolo $ -->
  <path
    d="M45 35v20"
    stroke="#ffffff"
    stroke-width="3"
    stroke-linecap="round"
  />

  <path
    d="M50 39.5c-1.4-2-7.9-2.7-8.8.8-.8 3.4 7.8 3.1 8.2 7 .4 4-7 4.4-9.8 1.5"
    fill="none"
    stroke="#ffffff"
    stroke-width="3"
    stroke-linecap="round"
    stroke-linejoin="round"
  />
</svg>