<svg xmlns="http://www.w3.org/2000/svg" viewBox="0 0 64 64" role="img" aria-label="Inicio">
  <defs>
    <linearGradient id="azulCasa" x1="12" y1="8" x2="52" y2="56" gradientUnits="userSpaceOnUse">
      <stop offset="0%" stop-color="#1fc4f2"/>
      <stop offset="100%" stop-color="#004370"/>
    </linearGradient>
  </defs>

  <path
    fill="url(#azulCasa)"
    d="M9.4 31.6 28.7 14.2c1.9-1.7 4.7-1.7 6.6 0l19.3 17.4c1.6 1.5 1.8 4 .3 5.6-1.5 1.7-4 1.8-5.7.3L32 22 14.8 37.5c-1.6 1.5-4.2 1.4-5.7-.3-1.5-1.6-1.3-4.1.3-5.6Z"
  />

  <path
    fill="url(#azulCasa)"
    d="M18 35.5 32 23l14 12.5V53c0 1.7-1.3 3-3 3h-8.5V43.5c0-1.1-.9-2-2-2h-1c-1.1 0-2 .9-2 2V56H21c-1.7 0-3-1.3-3-3V35.5Z"
  />

  <path
    fill="url(#azulCasa)"
    d="M44 18c0-1.7 1.3-3 3-3h4c1.7 0 3 1.3 3 3v15.4L44 24.4V18Z"
  />
</svg>