<?xml version="1.0" encoding="UTF-8"?>
<svg id="Capa_1" xmlns="http://www.w3.org/2000/svg" version="1.1" viewBox="0 0 300 300">
  <!-- Generator: Adobe Illustrator 29.0.0, SVG Export Plug-In . SVG Version: 2.1.0 Build 186)  -->
  <defs>
    <style>
      .st0 {
        fill: #333;
      }

      .st1 {
        fill: #1b9cd9;
      }
    </style>
  </defs>
  <path class="st1" d="M300,250.76c-2.99,13.27-17.09,19.17-28.41,11.13l-31.72-31.54c-2.51.73-4.65,2.36-7.09,3.28-51.27,19.57-100.15-25.39-86.28-77.79H45.43c-1.79,0-4.08-3.19-4.36-5.02-.96-6.3-.68-25.5-.07-32.21.22-2.44,2.46-6.12,5.01-6.12h29.59v-33.69c0-1.03,3.82-3.81,4.98-3.81h34.86v-36.03c0-2.97,4.16-4.76,6.72-5,9.02-.84,29.81-.97,38.69.02,1.77.2,6.15,1.93,6.15,3.81v33.69h35.45c1.88,0,5.07,3.52,4.93,5.62l.05,32.47c49.23-.46,80.88,52.24,57.51,95.71l29.5,29.66c2.56,3.07,4.33,6.16,5.56,9.97v5.86ZM155.28,45.7h-28.12v98.43h24.61c5.77-12.3,17.67-23.28,30.07-28.81,4.49-2,9.41-2.85,13.87-4.88v-27.24h-27.83l-.88.88v24.61c0,1.27-3.28,3.48-4.54,3.7-3.58.63-7.17-2.58-7.17-6.04v-60.64ZM115.44,86.71h-28.12v57.42h28.12v-57.42ZM204.97,121.45c-42.09,3.04-63.95,51.54-37.94,85.05,25.6,32.99,78.53,23.73,91.4-15.78,11.51-35.34-16.25-71.96-53.45-69.27ZM75.6,124.21h-22.85v19.92h22.85v-19.92ZM257.6,215.65l-7.98,7.87,28.41,28.41c5.44,4.91,13.14-1.11,9.08-7.32l-29.51-28.96Z"/>
  <path class="st0" d="M233.21,0c8.04,1.8,14.24,7.77,15.17,16.17,1.82,16.46-1.24,35.89.06,52.67-.21,7.52-9.61,8.63-11.69,1.72l-.03-52.7c-.16-2.84-1.91-5.18-4.65-5.9l-213.62-.27c-3.94-.03-6.76,2.77-6.74,6.74l.57,266.06,3.22,3.22,215.6.49c2.78-.32,4.99-2.34,5.48-5.07,1.5-8.26-1.35-20.38.27-28.44,1.24-6.18,10.71-6.11,11.58,1.62.68,5.96.61,27.64-1.35,32.63-2.46,6.27-9.2,10.73-15.92,11.04H17.86C8.19,299.68.84,293.03,0,283.3L.03,16.12C.61,8.31,7.55.97,15.25,0h217.95Z"/>
  <path class="st0" d="M36.19,256.76l165.82.31c4.72,2.48,4.57,9.07-.53,10.89l-163.1.41c-7.36-.06-9.49-9.26-2.19-11.61Z"/>
  <path class="st0" d="M50.21,177.73c5.24-.18,4.54,3.76,6.35,5.65,1.01,1.06,5.62,2.66,7.64,4.67,4.64,4.61,8.55,17.94-1.2,17.65-5.76-.17-4.58-4.85-6.48-8.21-3.62-6.37-15.54-2.09-12.69,4.49,2.12,4.89,9.85,3.75,14.35,5.57,11.67,4.71,14.81,19.84,5.32,28.47-1.92,1.75-5.66,2.97-6.64,3.91-2.02,1.92-.61,6.03-6.15,6.2-6.26.19-4.66-4.43-6.76-6.19-1.54-1.29-5.13-2.2-7.33-4.39-4.65-4.62-8.72-17.95,1.2-17.65,7.49.23,3.74,9.1,9.63,10.92,8.29,2.56,13.69-6.56,6.7-10.21-2.53-1.32-5.5-.81-7.99-1.39-12.81-2.94-19.42-17.82-10.38-28.26,2.5-2.89,7.09-4.12,8.48-5.58,1.76-1.84.98-5.48,5.95-5.65Z"/>
  <path class="st0" d="M86.58,191.13l38.5-.1c6.69,1.78,6.5,10.63-.61,11.63-11.05,1.56-25.4-1.01-36.8,0-6.84-.97-7.71-9.59-1.09-11.53Z"/>
  <path class="st0" d="M86.58,223.94l38.5-.1c6.69,1.78,6.5,10.63-.61,11.63-11.05,1.56-25.4-1.01-36.8,0-6.84-.97-7.71-9.59-1.09-11.53Z"/>
  <path class="st0" d="M238.08,88.65c4.63-5,13.34,1.01,9.19,7.15-4.78,7.07-14.47-1.45-9.19-7.15Z"/>
  <path class="st0" d="M144.59,223.92c7.97-1.39,9.17,10.87,1.55,11.6-7.1.68-8.69-10.36-1.55-11.6Z"/>
  <path class="st0" d="M175.41,163.84c-17.27-17.24,11.49-42.49,26.4-23.18,13.45,17.42-11.09,38.47-26.4,23.18ZM186.16,146.01c-5.05,1.17-5.31,9.22-.45,10.74,10.19,3.17,10.85-13.14.45-10.74Z"/>
  <path class="st0" d="M225.45,179.43c26.12-3.82,27.88,34.65,3.36,34.67-21.6.01-23.01-31.8-3.36-34.67ZM233,192.38c-5.6-5.73-14.64,4.6-7.14,9.18,5.87,3.59,11.82-4.39,7.14-9.18Z"/>
  <path class="st0" d="M218.98,143.66c5.21-1.18,9.25,3.34,7.04,8.22l-31.35,55.36c-2.29,4.19-7.19,5.09-10.09,1.04-1.99-2.78-1.1-4.11.08-6.94,7.55-18.09,22.7-36.91,31.07-55.06.72-1.14,1.89-2.31,3.24-2.62Z"/>
</svg>