<svg xmlns="http://www.w3.org/2000/svg" viewBox="0 0 64 64" role="img" aria-label="Marco normativo">
  <defs>
    <linearGradient id="azulMarco" x1="10" y1="6" x2="56" y2="58" gradientUnits="userSpaceOnUse">
      <stop offset="0%" stop-color="#25c6f3"/>
      <stop offset="100%" stop-color="#004370"/>
    </linearGradient>
  </defs>

  <!-- Documento -->
  <path d="M26 6h19l9 9v34c0 2.2-1.8 4-4 4H26c-2.2 0-4-1.8-4-4V10c0-2.2 1.8-4 4-4Z"
        fill="none" stroke="url(#azulMarco)" stroke-width="4" stroke-linejoin="round"/>

  <!-- Esquina doblada -->
  <path d="M45 6v9h9" fill="none" stroke="url(#azulMarco)" stroke-width="4" stroke-linejoin="round"/>

  <!-- Líneas del documento -->
  <path d="M31 21h11" stroke="url(#azulMarco)" stroke-width="3.5" stroke-linecap="round"/>
  <path d="M31 30h15" stroke="url(#azulMarco)" stroke-width="3.5" stroke-linecap="round"/>
  <path d="M31 39h12" stroke="url(#azulMarco)" stroke-width="3.5" stroke-linecap="round"/>

  <!-- Checks -->
  <path d="M27 21.3l1.8 1.8 3.3-4" fill="none" stroke="url(#azulMarco)" stroke-width="3" stroke-linecap="round" stroke-linejoin="round"/>
  <path d="M27 30.3l1.8 1.8 3.3-4" fill="none" stroke="url(#azulMarco)" stroke-width="3" stroke-linecap="round" stroke-linejoin="round"/>
  <path d="M27 39.3l1.8 1.8 3.3-4" fill="none" stroke="url(#azulMarco)" stroke-width="3" stroke-linecap="round" stroke-linejoin="round"/>

  <!-- Balanza -->
  <path d="M16 22v25" stroke="url(#azulMarco)" stroke-width="4" stroke-linecap="round"/>
  <path d="M9 47h14" stroke="url(#azulMarco)" stroke-width="4" stroke-linecap="round"/>
  <path d="M12 22h8" stroke="url(#azulMarco)" stroke-width="4" stroke-linecap="round"/>
  <path d="M8 28l4 10 4-10" fill="none" stroke="url(#azulMarco)" stroke-width="3" stroke-linejoin="round"/>
  <path d="M16 28l4 10 4-10" fill="none" stroke="url(#azulMarco)" stroke-width="3" stroke-linejoin="round"/>
  <path d="M8 38h8" stroke="url(#azulMarco)" stroke-width="3" stroke-linecap="round"/>
  <path d="M16 38h8" stroke="url(#azulMarco)" stroke-width="3" stroke-linecap="round"/>
</svg>