<?xml version="1.0" encoding="UTF-8"?>
<svg id="Capa_1" xmlns="http://www.w3.org/2000/svg" version="1.1" viewBox="0 0 300 300">
  <!-- Generator: Adobe Illustrator 29.0.0, SVG Export Plug-In . SVG Version: 2.1.0 Build 186)  -->
  <defs>
    <style>
      .st0 {
        fill: #333;
      }

      .st1 {
        fill: #1b9cd9;
      }
    </style>
  </defs>
  <path class="st0" d="M251.16,1c2.09,1.19,4.83,2.99,5.24,5.6-.97,12.02,1.41,26.34.04,38.08-.74,6.38-8.8,3.65-8.8.58V9.79H64.17v75.62h19.05c2.26,0,8.39,4.53,9.97,6.44,9,10.85,3.69,25.97-9.13,30.26.51,2.95-.63,7.7.16,10.37.32,1.07,2.3,2.27,3.07,3.38,2.11,3.05,2.32,6.31,2.09,9.93h18.47c.41,0,1.94-4.31,6.42-4.72,3.01-.28,13.13-.44,15.73.15s4.18,4.47,5.38,4.61c4.95-1.05,27.4,1.36,30.21-.34,1.51-.91,1.77-3.76,5.61-4.36,4.88-.75,21.84-.64,26.94-.05,2.66.31,3.72,1.42,3.8,4.11.05,1.81-1.49,4.69-3.22,4.69h-24.91v20.52h91.74c.26,0,3.5-1.52,4.01-1.85,8.01-5.24,4.55-17.83-5.16-18.69-14.75-1.3-31.35,1.05-46.3,0-2.6-.67-3.93-1.92-3.84-4.66.04-1.45,1.08-4.1,2.64-4.1h30.78v-77.09c0-2.94,7.81-5.81,8.76.03l.03,77.05h10.84c.99,0,5.83,2.32,6.94,3.02,12.08,7.59,11.16,26.19-1.56,32.84-1.01.53-5.18,2.24-5.97,2.24h-10.26v115.79c-.13,2.52-2.91,5.33-5.24,5.89l-245.23.12c-2.5-.73-5.03-2.95-5.57-5.57-.61-2.98-.5-16.5.13-19.54,1-4.88,5.39-8.04,10.27-8.2.37-3.51-.62-7.61.48-10.96.82-2.52,5.37-6.61,8.05-6.61h36.05v-15.24h-16.71c-.92,0-5.92-2.34-6.94-3.03-13.3-9-10.1-28.79,4.92-33.68-.54-3.1.67-8.16-.16-10.95-.64-2.15-4.12-2.73-4.6-7.71-1.2-12.4.96-26.7.02-39.32-.64-2.72,4.29-6.19,4.61-7.12.24-.69.32-10.1.12-10.94-12.87-4.48-18.01-20.95-8.22-31.16,1.51-1.58,7.74-5.58,9.67-5.58h16.41l.88-.88V5.98c0-1.45,4.07-4.15,5.28-4.98h190.51ZM35.06,96.76c-6.37,6.06-2.07,16.27,6.6,17.32,11.87,1.43,26.34-.81,38.48-.07,11.54-1.93,11.16-18.26.67-19.74-12.14-1.72-27.88,1.19-40.41-.06-1.6.2-4.19,1.46-5.35,2.56ZM75.3,122.93h-29.9v8.79h29.9v-8.79ZM79.99,179.79c-.19-.58.59-1.27.59-1.47v-36.93l-.88-.88h-38.1l-.88.88v37.52l.88.88h38.4ZM126.3,149.89h-9.97v20.52h9.97v-20.52ZM107.54,154.58h-18.17v11.14h18.17v-11.14ZM164.99,154.58h-29.9v11.14h29.9v-11.14ZM247.65,179.2h-76.5c-2.53,0-4.86-4.36-6.46-4.68-3.73-.74-24.51-.57-28.75-.05-2.43.3-3.03,3.88-6.55,4.59-2.61.53-12.3.49-15.12.15-4.24-.51-6.02-4.7-6.43-4.7h-18.47c.2,3.67-.16,7.66-2.62,10.57-.66.79-2.58,1.8-2.67,2.15-.24.97-.2,8.72,0,9.85.29,1.54,6.37,3.98,8.23,5.84,8.51,8.54,6.47,24.09-4.31,29.73-1.01.53-5.18,2.24-5.97,2.24h-17.88v15.24h37.81c.38,0,3.77,1.67,4.36,2.09,5.06,3.6,4.13,10.04,4.17,15.47,3.18-.86,9.94,4.62,9.94,7.35v17.29h127.21v-113.14ZM75.3,188.58h-29.9v8.79h29.9v-8.79ZM40.56,206.31c-10.91,1.82-11.13,17.12-.58,19.65,12.48-.92,28.15,1.74,40.26.09,11.18-1.52,11.29-17.28.5-19.74-12.15,1.05-28.51-1.95-40.17,0ZM54.2,272.41c-.05-.92.05-2.37.54-3.13.16-.25,2.53-1.56,2.69-1.56h44.26l-.59-8.79H20.49c-1.82,2.2-.49,6.01-.88,8.79h19.05c1.74,0,3.28,2.88,3.22,4.69-.04,1.45-1.08,4.1-2.64,4.1H9.94l-.88.88v14.95h102.58v-14.95l-.88-.88h-53.93c-1.59,0-2.56-2.66-2.64-4.1Z"/>
  <path class="st1" d="M123.58,41.65c20.71-20.71,55.53-16.65,70.97,8.05,24.3,38.88-18.09,85.42-59.07,64.94-27.46-13.72-33.71-51.17-11.89-72.99ZM150.21,37.51c-41.7,5-40.78,70.45,3.36,73.1,52.15,3.14,51.52-79.69-3.36-73.1Z"/>
  <path class="st1" d="M222.87,194.01c1.93,2.07.64,7.91-3.06,7.48l-82.94-.32c-4.1-2.81-2.96-7.91,2.03-8.5l79.77-.02c1.1,0,3.52.62,4.21,1.35Z"/>
  <path class="st1" d="M222.85,236.82c1.94,2.4.7,7.71-3.04,7.46h-80.92c-6.19-.73-5.88-8.22,0-8.82l81.94.17c.4.09,1.78.88,2.02,1.18Z"/>
  <path class="st1" d="M138.46,256.72c14.4.93,31.49-1.72,45.58-.14,7.34.82,6.98,8.75,0,9.38-14.12-1.16-30.73,1.56-44.55,0-6.83-.77-6.8-8.2-1.03-9.24Z"/>
  <path class="st1" d="M177.73,213.93c11.81-2.12,29.04,1.25,41.43-.09,6.3.89,6.66,7.65.61,9.29h-42.14c-5.68-1.28-5.68-8.17.1-9.21Z"/>
  <path class="st1" d="M138.46,213.93c3.98-.72,19.7-.67,23.84-.09,6.51.91,6.03,8.44.61,9.29-4.09.65-19.75.57-23.95-.02-6.14-.86-6.2-8.16-.5-9.19Z"/>
  <path class="st1" d="M198.25,256.72c2.98-.54,19.26-.63,22.01-.01,5.22,1.17,4.94,8.36-.5,9.22-3.48.55-18.08.51-21.52-.1-5.73-1.03-5.74-8.07,0-9.1Z"/>
  <path class="st1" d="M173.63,60.31c3.87-.8,6.94,3.13,4.89,6.69-6.53,6.19-13.59,15.71-20.55,21.07-2.64,2.04-4.39,2.93-7.34.87-2.25-1.57-11.1-10.56-12.91-12.88s-3.01-4.71-.6-7.07c5.46-5.34,12.55,8.06,16.94,9.95,4.05-2.59,16.03-17.88,19.56-18.61Z"/>
</svg>