<?xml version="1.0" encoding="UTF-8"?>
<svg id="Capa_1" xmlns="http://www.w3.org/2000/svg" version="1.1" viewBox="0 0 300 300">
  <!-- Generator: Adobe Illustrator 29.0.0, SVG Export Plug-In . SVG Version: 2.1.0 Build 186)  -->
  <defs>
    <style>
      .st0 {
        fill: #333;
      }

      .st1 {
        fill: #1b9cd9;
      }
    </style>
  </defs>
  <path class="st0" d="M13.16,300c-2.4-1.85-3.73-2.95-4.09-6.15-.92-8.06-.66-28.69,1.09-36.41,2.47-10.91,10.47-21.32,20.55-26-1.02-2.45-3.06-4.44-4.2-7.21-4.5-10.96-.5-24.23,9.64-30.39,1.4-.85,4.94-1.92,5.67-2.52.8-.66.88-5.31.46-6.04-.22-.37-5.95-3.82-7.17-4.82-12.57-10.27-30-35-24.31-51.86,5.06-15.01,25.03-19.11,36.01-7.91,5.8,5.92,5.58,14.95,11.09,21.11.85-8.73,5.02-16.78,12.77-21.19,20.82-11.86,44.34,10.45,34.24,31.96-.55,1.16-3.9,5.46-3.4,6.17,6.23,2.64,10.57,7.96,14.88,12.93,4.3-4.97,8.65-10.28,14.88-12.93-3.41-6.29-6.41-11.36-5.74-18.92,2.63-29.59,46.36-29.52,48.98,0,.67,7.56-2.33,12.63-5.74,18.92,6.23,2.64,10.57,7.96,14.88,12.93,4.3-4.97,8.65-10.28,14.88-12.93.5-.72-2.86-5.01-3.4-6.17-9.93-21.15,12.56-43.22,33.47-32.36,8.1,4.21,12.7,12.68,13.53,21.59,5.42-6.17,5.33-15.27,11.09-21.11,8.89-9.02,24.58-8.4,32.46,1.5,14.04,17.63-7.04,46.43-20.76,58.27-2.15,1.86-6.94,4.08-7.32,6.73-.77,5.43,2.86,4.53,6.65,6.87,9.9,6.11,13.65,19.5,9.27,30.18-1.14,2.77-3.17,4.76-4.2,7.21,10.21,4.74,18.28,15.46,20.67,26.47,1.64,7.55,1.86,28.06.97,35.94-.38,3.34-1.81,4.69-4.68,6.15H13.16ZM97.95,231.44c.4-.56-2.24-3.47-2.81-4.5-6.15-11.18-3.16-26.07,7.88-32.88,1.24-.77,6.34-2.69,6.58-3.41-.92-11.56-11.15-22.01-22.53-23.58-14.36-1.99-23.11-1.25-34.74-12.07-8.53-7.93-8.49-13.5-13.11-22.6s-18.33-5.41-16.56,6.05c1.62,10.49,12.31,25.03,20.32,31.79,3.08,2.6,10.92,6.33,12.11,9.55,1.33,3.59.31,7.58,1.03,11.27,13.8,4.43,21.23,19.51,15.63,33.19-1.14,2.77-3.17,4.76-4.2,7.21,6.63,2.23,10.5,8.65,15.44,12.88,4.29-4.85,8.81-10.51,14.97-12.88ZM232.46,231.44c-1.02-2.45-3.06-4.44-4.2-7.21-5.63-13.72,1.82-28.71,15.63-33.19.72-3.69-.3-7.68,1.03-11.27,1.15-3.11,9.28-7.15,12.41-9.83,8.08-6.94,17.92-20.44,19.89-31.04,1.4-7.5-4.1-13.92-11.6-11.04-5.47,2.1-5.84,8.57-7.92,13.16-6.03,13.32-19.34,23.18-33.8,25.32-6.83,1.01-11.85-.01-18.47,3.17-8.01,3.85-14.8,12.46-14.83,21.53,15.1,4.95,22.06,21.71,14.25,35.89-.57,1.04-3.2,3.94-2.81,4.5,6.63,2.23,10.5,8.65,15.44,12.88,4.29-4.85,8.81-10.51,14.97-12.88ZM81.45,130.21c-14.86,1.63-13.25,25.45,3.29,23.25,14.35-1.91,11.68-24.89-3.29-23.25ZM148.7,130.21c-14.86,1.63-13.25,25.45,3.29,23.25,14.35-1.91,11.68-24.89-3.29-23.25ZM215.96,130.21c-14.86,1.63-13.25,25.45,3.29,23.25,14.35-1.91,11.68-24.89-3.29-23.25ZM165.2,231.44c.4-.56-2.24-3.47-2.81-4.5-7.81-14.18-.85-30.94,14.25-35.89-1.72-23.77-32.43-32.75-47.69-14.37-2.36,2.84-5.69,9.3-5.84,12.96-.09,2.23,4.26,3.01,6.24,4.2,10.09,6.05,14.08,19.56,9.64,30.39-1.14,2.77-3.17,4.76-4.2,7.21,6.63,2.23,10.5,8.65,15.44,12.88,4.29-4.85,8.81-10.51,14.97-12.88ZM45.75,203.45c-7.05,1.46-10.36,11.56-6.54,17.42,7.13,10.92,24,4.36,21.06-9.38-1.4-6.55-8.41-9.3-14.52-8.04ZM113,203.45c-7.05,1.46-10.36,11.56-6.54,17.42,7.13,10.92,24,4.36,21.06-9.38-1.4-6.55-8.41-9.3-14.52-8.04ZM180.25,203.45c-7.05,1.46-10.36,11.56-6.54,17.42,7.13,10.92,24,4.36,21.06-9.38-1.4-6.55-8.41-9.3-14.52-8.04ZM247.5,203.45c-7.05,1.46-10.36,11.56-6.54,17.42,7.13,10.92,24,4.36,21.06-9.38-1.4-6.55-8.41-9.3-14.52-8.04ZM76.32,287.11v-23.73c0-13.16-15.97-24.27-28.39-23.75-11.47.48-25.99,11.65-25.99,23.75v23.73h54.39ZM143.57,287.11v-23.73c0-13.16-15.97-24.27-28.39-23.75-11.47.48-25.99,11.65-25.99,23.75v23.73h54.39ZM210.82,287.11v-23.73c0-13.16-15.97-24.27-28.39-23.75-11.47.48-25.99,11.65-25.99,23.75v23.73h54.39ZM278.07,287.11v-23.73c0-13.16-15.97-24.27-28.39-23.75-11.47.48-25.99,11.65-25.99,23.75v23.73h54.39Z"/>
  <path class="st1" d="M235.38,0c7.88,2.56,13.76,8.09,14.61,16.7,2.1,21.23-1.55,45.79,0,67.37-3.72,24.6-32.05,14.58-49.29,16.82-4.36,2.87-11.49,13.6-16.5,13.98-5.93.45-12.88-10.81-17.66-13.98l-32.62-.11c-5.02,2.62-11.8,14.1-17.56,14.1s-12.51-10.97-17.08-14c-16.5-2-47.18,7.44-49.32-17.38-1.84-21.46,1.37-45.6.08-67.34C51.21,7.86,56.61,2.99,64.04,0h171.35ZM66.79,13.01c-2.68.99-3.7,2.64-3.95,5.41-1.85,20.47,1.45,43.72.01,64.49.07,2.15,1.64,3.83,3.49,4.71l37.63.39c5.05,2.45,8.29,7.35,12.4,11,4.11-3.65,7.35-8.55,12.4-11l41.95-.09c4.09.68,12.04,11.09,12.9,11.09,4.11-3.65,7.35-8.55,12.4-11,11.21-1.46,25.9,1.55,36.69-.16,1.9-.3,3.37-1.77,4.16-3.45l.27-66.55c-.07-2.15-1.64-3.83-3.49-4.71l-166.87-.14Z"/>
  <path class="st1" d="M130.56,30.62c7.13-1.04,31.75-1.04,38.88,0,8.98,1.31,8.96,12.32-1.02,13.32-8.11.81-30.05,1-37.85-.15-8.77-1.28-8.77-11.89,0-13.17Z"/>
  <path class="st1" d="M130.56,56.99c7.13-1.04,31.75-1.04,38.88,0,8.98,1.31,8.96,12.32-1.02,13.32-8.11.81-30.05,1-37.85-.15-8.77-1.28-8.77-11.89,0-13.17Z"/>
</svg>