<?xml version="1.0" encoding="UTF-8"?>
<svg id="Capa_1" xmlns="http://www.w3.org/2000/svg" version="1.1" viewBox="0 0 300 300">
  <!-- Generator: Adobe Illustrator 29.0.0, SVG Export Plug-In . SVG Version: 2.1.0 Build 186)  -->
  <defs>
    <style>
      .st0 {
        fill: #333;
      }

      .st1 {
        fill: #1b9cd9;
      }
    </style>
  </defs>
  <g>
    <path class="st0" d="M111.55,0c67.34,4.78,113.61,69.47,94.51,135.24-3.17,10.91-8.44,20.51-14.13,30.23l35.34,39.67c6.44.66,9.34.77,14.4,4.94,14.45,11.93,30.56,30.6,44.22,44.27,3.5,3.5,7.27,5.92,10.17,10.34,14.11,21.51-12.48,46.62-33.31,29.79-18.33-18.96-38.05-36.87-55.59-56.45-.51-.57-.83-1.28-.93-2.04l-1.21-9.2-34.29-38.43-1.55.18c-49.17,38.2-121.49,24.68-153.62-28.39C-25.45,92.44,19.54,5.97,97.72.54L98.65,0h12.89ZM103.81,11.3C28.82,12.56-15.29,97.82,27.61,159.83c39.54,57.14,126.01,53.34,160.22-7.07C223.95,88.99,176.7,10.08,103.81,11.3ZM185.13,174.07l-7.36,7.89,32.52,36.03,7.9-7.31-33.06-36.61ZM227.41,215.78c-.79.24-11.49,10.86-11.83,11.61-.66,1.46-.55,5.36.25,6.76l53.41,53.25c12.45,9.3,27.78-6.06,17.52-18.1l-52.44-52.46c-1.51-1.4-5.06-1.6-6.91-1.05Z"/>
    <path class="st0" d="M225.24,267.71v5.49c0,1.24-1,2.24-2.24,2.24H48.55c-6.78,0-15.77-6.13-19.16-11.9-.73-1.25-3.4-7.34-3.4-8.32v-52.56c0-1.24,1-2.24,2.24-2.24h5.53c1.14,0,2.09.86,2.22,2,0,0,0,.02,0,.03,1.86,15.87-1.57,35.22.11,51.46.68,5.09,7.42,11.57,12.46,11.57h174.45c1.24,0,2.24,1,2.24,2.24Z"/>
    <path class="st0" d="M270.07,215.66h0c-2.75,0-4.98-2.23-4.98-4.98V50.11c0-2.13-2.56-7.71-4.11-9.37-1.18-1.28-6.4-4.4-7.91-4.4h-52.74c-2.75,0-4.98-2.23-4.98-4.98h0c0-2.75,2.23-4.98,4.98-4.98h53.33c10.5,0,21.39,13.64,21.39,23.73v160.57c0,2.75-2.23,4.98-4.98,4.98Z"/>
    <path class="st0" d="M103.81,21.26c65.55-1.19,107.76,69.62,75.23,126.81-29.31,51.54-102.39,57.35-139.56,11.02C-4.4,104.39,33.87,22.53,103.81,21.26ZM104.41,31.22c-61.74.9-95.62,72.41-57.56,121.09,34.77,44.47,105.72,34.79,127.51-17.12,20.88-49.75-16.1-104.76-69.95-103.97Z"/>
    <path class="st1" d="M49.05,99.83c1.81-1.91,5.3-4.63,7.47-6.3,33.03-25.38,79.05-21.15,106.99,8.58,2.2,2.34,2.23,5.99.07,8.37-30.28,33.27-86.21,32.6-115.87-1.13-1.95-2.21-1.97-5.53-.12-7.82.59-.73,1.14-1.36,1.46-1.71ZM98.06,87.32c-12.39,1.15-24.82,6.19-34.77,13.57-1.05.78-5.8,4.32-5.62,5.39,10.37,9.82,24.34,16.77,38.63,17.95-.97-1.2-2.56-1.76-3.82-2.91-9.96-9.08-9.53-22.4.61-31.06l4.96-2.94ZM112.72,124.82c15.28-1.67,30.03-8.29,41.01-19.04-11.21-10.22-25.2-16.98-40.42-18.45l4.98,2.92c10.22,8.57,9.76,23.91-.93,31.89l-4.64,2.68ZM103.18,96.24c-14.08,2.91-6.28,26.42,7.61,18.15,9.35-5.56,3.52-20.45-7.61-18.15Z"/>
    <rect class="st0" x="70.52" y="56.26" width="69.74" height="9.96" rx="4.98" ry="4.98"/>
    <rect class="st0" x="70.52" y="145.92" width="69.74" height="9.96" rx="4.98" ry="4.98"/>
  </g>
  <rect class="st0" x="211" y="49" width="47" height="12" rx="6" ry="6"/>
  <rect class="st0" x="217" y="72" width="41" height="12" rx="6" ry="6"/>
  <rect class="st0" x="217" y="93" width="41" height="12" rx="6" ry="6"/>
  <rect class="st0" x="217" y="114" width="41" height="12" rx="6" ry="6"/>
  <rect class="st0" x="217" y="135" width="41" height="12" rx="6" ry="6"/>
  <rect class="st0" x="217" y="156" width="41" height="12" rx="6" ry="6"/>
  <rect class="st0" x="49" y="218" width="139" height="13" rx="6.5" ry="6.5"/>
  <rect class="st0" x="49" y="240" width="151" height="13" rx="6.5" ry="6.5"/>
</svg>