<svg xmlns="http://www.w3.org/2000/svg" viewBox="0 0 64 64" role="img" aria-label="Transparencia">
  <defs>
    <linearGradient id="azulDoc" x1="12" y1="8" x2="52" y2="58" gradientUnits="userSpaceOnUse">
      <stop offset="0%" stop-color="#25c6f3"/>
      <stop offset="100%" stop-color="#004370"/>
    </linearGradient>

    <linearGradient id="azulLupa" x1="34" y1="34" x2="58" y2="58" gradientUnits="userSpaceOnUse">
      <stop offset="0%" stop-color="#25c6f3"/>
      <stop offset="100%" stop-color="#003b70"/>
    </linearGradient>
  </defs>

  <!-- Documento -->
  <path
    fill="url(#azulDoc)"
    d="M13 7.5C13 5.6 14.6 4 16.5 4H39l12 12v29.5c0 1.9-1.6 3.5-3.5 3.5h-31C14.6 49 13 47.4 13 45.5v-38Z"
  />

  <!-- Esquina doblada -->
  <path
    fill="#ffffff"
    opacity=".95"
    d="M39 4v10.5c0 1.4 1.1 2.5 2.5 2.5H52L39 4Z"
  />

  <!-- Líneas del documento -->
  <rect x="20" y="19" width="15" height="3.5" rx="1.7" fill="#ffffff" opacity=".95"/>
  <rect x="20" y="28" width="22" height="3.5" rx="1.7" fill="#ffffff" opacity=".95"/>
  <rect x="20" y="37" width="14" height="3.5" rx="1.7" fill="#ffffff" opacity=".95"/>

  <!-- Lupa -->
  <circle
    cx="42"
    cy="42"
    r="11"
    fill="#ffffff"
    stroke="url(#azulLupa)"
    stroke-width="5"
  />

  <path
    d="M50.5 50.5 59 59"
    fill="none"
    stroke="url(#azulLupa)"
    stroke-width="6"
    stroke-linecap="round"
  />
</svg>